<svg xmlns="http://www.w3.org/2000/svg" version="1.1" xmlns:xlink="http://www.w3.org/1999/xlink" xmlns:svgjs="http://svgjs.dev/svgjs" width="128" height="128" viewBox="0 0 128 128"><g transform="matrix(0.8046875,0,0,0.8046875,12.760752631578946,19.887802424283826)"><svg viewBox="0 0 95 82" data-background-color="#ffffff" preserveAspectRatio="xMidYMid meet" height="110" width="128" xmlns="http://www.w3.org/2000/svg" xmlns:xlink="http://www.w3.org/1999/xlink"><g id="tight-bounds" transform="matrix(1,0,0,1,-0.24049999999999727,-0.13489622641509413)"><svg viewBox="0 0 95.481 82.26979245283017" height="82.26979245283017" width="95.481"><g><svg viewBox="0 0 95.481 82.26979245283017" height="82.26979245283017" width="95.481"><g><svg viewBox="0 0 95.481 82.26979245283017" height="82.26979245283017" width="95.481"><g id="textblocktransform"><svg viewBox="0 0 95.481 82.26979245283017" height="82.26979245283017" width="95.481" id="textblock"><g><svg viewBox="0 0 95.481 82.26979245283017" height="82.26979245283017" width="95.481"><g><svg viewBox="0 0 95.481 82.26979245283017" height="82.26979245283017" width="95.481"><g><svg xmlns="http://www.w3.org/2000/svg" data-name="Layer 1" viewBox="7.629999999999999 15.45 74.73 64.39" x="0" y="0" height="82.26979245283017" width="95.481" class="icon-icon-0" data-fill-palette-color="accent" id="icon-0"><path d="M69.29 30.2a1 1 0 0 1 0.21-0.32l0.15-0.13 0.18-0.09L70 29.6a1.27 1.27 0 0 1 0.39 0l0.19 0.06 0.17 0.09 0.16 0.13a1 1 0 0 1 0.29 0.7 1 1 0 0 1-0.08 0.39 1 1 0 0 1-0.21 0.32l-0.16 0.13-0.17 0.09-0.19 0.05a0.63 0.63 0 0 1-0.19 0 0.7 0.7 0 0 1-0.2 0l-0.18-0.05-0.18-0.09-0.15-0.13a1 1 0 0 1-0.21-0.32 0.88 0.88 0 0 1-0.08-0.39A0.84 0.84 0 0 1 69.29 30.2ZM70 35.27a1 1 0 0 1 0 2h0a1 1 0 1 1 0.08-2ZM69.76 41a1 1 0 0 1 0 2h0a1 1 0 0 1 0.09-2Zm-16.2-13.4a1 1 0 0 1 1.4 0.16 1 1 0 0 1-0.16 1.41 1 1 0 0 1-0.62 0.21 1 1 0 0 1-0.79-0.38A1 1 0 0 1 53.56 27.56Zm-6.12-7.72a1 1 0 0 1 1.4 0.16 1 1 0 0 1-1.57 1.24A1 1 0 0 1 47.44 19.84ZM41.16 20a1 1 0 1 1 0.78 1.62A1 1 0 0 1 41.16 20Zm-3.07 3.86a1 1 0 0 1 1.41-0.16 1 1 0 0 1-0.62 1.78 1 1 0 0 1-0.79-1.62ZM28.91 35.44a1 1 0 1 1 1.57 1.25 1 1 0 0 1-0.78 0.37 1.06 1.06 0 0 1-0.63-0.21A1 1 0 0 1 28.91 35.44Zm-6.12 7.72a1 1 0 1 1 0.16 1.41A1 1 0 0 1 22.79 43.16Zm-1.52-1.24a1 1 0 0 1-1 1h0a1 1 0 0 1 0-2A1 1 0 0 1 21.27 41.92Zm-1.2-4.65h0a1 1 0 1 1 1-1A1 1 0 0 1 20.07 37.27Zm-1.2-7.07a1 1 0 0 1 0.21-0.32 1 1 0 0 1 1.09-0.22 0.84 0.84 0 0 1 0.33 0.22 1.21 1.21 0 0 1 0.22 0.32 1 1 0 0 1 0.07 0.38 1 1 0 0 1-0.07 0.39 1.22 1.22 0 0 1-0.22 0.32 1 1 0 0 1-0.33 0.22 1.07 1.07 0 0 1-0.76 0 1.2 1.2 0 0 1-0.33-0.22 1 1 0 0 1-0.21-0.32 1 1 0 0 1-0.08-0.39A1 1 0 0 1 18.87 30.2Zm1.85 34.87a0.94 0.94 0 0 1-0.22 0.33 1 1 0 0 1-0.32 0.22 1 1 0 0 1-0.39 0.07 1 1 0 0 1-0.7-0.29 0.83 0.83 0 0 1-0.22-0.33 1 1 0 0 1-0.08-0.38 1 1 0 0 1 0.3-0.7 1 1 0 0 1 1.41 0 1 1 0 0 1 0.29 0.7A1 1 0 0 1 20.72 65.07ZM20 60h0a1 1 0 1 1 0.09-2 1 1 0 0 1 0 2Zm0.24-5.68h0a1 1 0 1 1 0.09-2 1 1 0 0 1 0 2Zm0.95-6a1 1 0 0 1-1.41 0 0.88 0.88 0 0 1-0.22-0.32 1.07 1.07 0 0 1 0-0.76 0.84 0.84 0 0 1 0.22-0.33 1 1 0 0 1 0.32-0.22 1 1 0 0 1 0.58 0l0.19 0 0.17 0.09 0.15 0.13a1 1 0 0 1 0.22 0.33 1 1 0 0 1-0.22 1.08Zm3 4a1 1 0 0 1-0.61 0.21h0a1 1 0 0 1-0.62-1.78 1 1 0 0 1 1.41 0.16 1 1 0 0 1-0.17 1.41Zm0.22-4.65a1 1 0 1 1 1 1A1 1 0 0 1 24.41 47.65Zm2.84 8.51a1 1 0 0 1-0.61 0.22h0a1 1 0 1 1 0.62-0.22Zm0.17-15.61a1 1 0 0 1-0.78 0.37 1.06 1.06 0 0 1-0.63-0.21 1 1 0 1 1 1.41-0.16ZM30.32 60a1 1 0 1 1-1.25-1.57 1 1 0 0 1 0.74-0.21 1 1 0 0 1 0.67 0.38A1 1 0 0 1 30.32 60Zm0-11.38a1 1 0 1 1 0-2 1 1 0 0 1 0 2ZM33.38 63.9a1 1 0 0 1-0.62 0.21 1 1 0 0 1-0.63-1.78 1 1 0 0 1 0.74-0.21 1 1 0 0 1 0.67 0.37A1 1 0 0 1 33.38 63.9Zm0.16-31.08a1 1 0 0 1-0.78 0.38 1 1 0 1 1 0.62-1.78A1 1 0 0 1 33.54 32.82Zm0.66 14.83a1 1 0 1 1 1 1A1 1 0 0 1 34.2 47.65Zm2.24 20.11a1 1 0 0 1-0.62 0.22A1 1 0 0 1 35 67.6a1 1 0 1 1 1.41 0.16ZM36.6 29a1 1 0 0 1-0.78 0.38A1 1 0 1 1 36.6 29Zm2.9 42.67a1 1 0 0 1-0.62 0.22 1 1 0 0 1-0.62-1.79 1 1 0 0 1 1.24 1.57Zm0.6-23h0a1 1 0 0 1 0-2h0a1 1 0 1 1 0 2ZM42.56 75.5a1 1 0 0 1-1.41-0.17 1 1 0 1 1 1.41 0.17ZM45 48.65a1 1 0 1 1 1-1A1 1 0 0 1 45 48.65Zm3.85 26.68a1 1 0 0 1-0.78 0.38 1 1 0 1 1 0.62-1.78A1 1 0 0 1 48.84 75.33Zm0-27.68a1 1 0 1 1 1 1A1 1 0 0 1 48.89 47.65Zm3 23.82a1 1 0 0 1-0.78 0.38 1 1 0 0 1-0.62-0.22 1 1 0 0 1-0.17-1.4 1 1 0 1 1 1.57 1.24Zm-0.16-46.2a1 1 0 0 1-0.62 0.21 1 1 0 0 1-0.79-0.38 1 1 0 0 1 1.57-1.24A1 1 0 0 1 51.74 25.27ZM55 67.6a1 1 0 0 1-0.79 0.38 1 1 0 0 1-0.62-0.21A1 1 0 1 1 55 67.6Zm-0.18-19a1 1 0 1 1 1-1A1 1 0 0 1 54.78 48.65ZM58 63.73a1 1 0 0 1-0.79 0.38 1 1 0 0 1-0.62-0.21 1 1 0 0 1-0.16-1.41A1 1 0 0 1 58 63.73ZM57.86 33a1.06 1.06 0 0 1-0.63 0.21 1 1 0 0 1-0.62-1.78A1 1 0 1 1 57.86 33Zm0.82 14.66a1 1 0 1 1 1 1A1 1 0 0 1 58.68 47.65Zm2.4 12.22a1 1 0 0 1-1.57-1.24 1 1 0 0 1 1.4-0.17A1 1 0 0 1 61.08 59.87Zm-0.17-23a1 1 0 0 1-0.62 0.21 1 1 0 0 1-0.78-0.37 1 1 0 1 1 1.4 0.16Zm1.82 2.29a1 1 0 1 1 0.62 1.79 1 1 0 0 1-0.78-0.38A1 1 0 0 1 62.73 39.14ZM64.14 56a1 1 0 0 1-0.79 0.38 1 1 0 0 1-0.62-0.22A1 1 0 0 1 64 54.59 1 1 0 0 1 64.14 56Zm0.43-7.35a1 1 0 1 1 1-1A1 1 0 0 1 64.57 48.65Zm2.62 3.48a1 1 0 0 1-0.78 0.38 1 1 0 0 1-0.78-1.62 1 1 0 1 1 1.56 1.24ZM67 44.57a1 1 0 0 1-0.62 0.22 1 1 0 0 1-0.78-0.38 1 1 0 1 1 1.4 0.16Zm1.52 2.7a0.94 0.94 0 0 1 0.21-0.33 1 1 0 0 1 0.33-0.22 1 1 0 0 1 1.09 0.22 0.93 0.93 0 0 1 0.21 0.33 1 1 0 1 1-1.84 0Zm1.12 5a1 1 0 1 1 0.08 2h0a1 1 0 0 1-1-1A1 1 0 0 1 69.67 52.26Zm0.24 5.62a1 1 0 1 1 0.08 2h0a1 1 0 0 1 0-2Zm1 7.32a1 1 0 0 1-0.71 0.3 1 1 0 0 1-0.71-0.3 1 1 0 0 1-0.29-0.7 1 1 0 0 1 0.29-0.71 1.21 1.21 0 0 1 0.33-0.22 1 1 0 0 1 1.09 0.22 1 1 0 0 1 0.29 0.71A1 1 0 0 1 70.9 65.2Z" fill="#000000" data-fill-palette-color="accent"></path><path d="M62.73 39.14a1 1 0 0 0-0.16 1.41A1 1 0 0 1 62.73 39.14Z" fill="#000000" data-fill-palette-color="accent"></path><path d="M41.1 47.65a1 1 0 0 0-1-1h0A1 1 0 0 1 41.1 47.65Z" fill="#000000" data-fill-palette-color="accent"></path><path d="M40.09 48.65h0a1 1 0 0 0 1-1A1 1 0 0 1 40.09 48.65Z" fill="#000000" data-fill-palette-color="accent"></path><path d="M29.81 58.25a1 1 0 0 1 0.67 0.38A1 1 0 0 0 29.81 58.25Z" fill="#000000" data-fill-palette-color="accent"></path><path d="M26.63 56.38h0a1 1 0 0 1-0.79-0.38A1 1 0 0 0 26.63 56.38Z" fill="#000000" data-fill-palette-color="accent"></path><path d="M32.87 62.12a1 1 0 0 1 0.67 0.37A1 1 0 0 0 32.87 62.12Z" fill="#000000" data-fill-palette-color="accent"></path><path d="M24.36 50.89a1 1 0 0 1 0.21 0.74A1 1 0 0 0 24.36 50.89Z" fill="#000000" data-fill-palette-color="accent"></path><path d="M41.32 73.93a1 1 0 0 0-0.17 1.4 1 1 0 0 0 0.79 0.38 1 1 0 0 1-0.62-1.78Z" fill="#000000" data-fill-palette-color="accent"></path><path d="M23.57 52.51h0a1 1 0 0 1-0.79-0.38A1 1 0 0 0 23.57 52.51Z" fill="#000000" data-fill-palette-color="accent"></path><path d="M38.26 70.06a1 1 0 0 0-0.17 1.41A1 1 0 0 1 38.26 70.06Z" fill="#000000" data-fill-palette-color="accent"></path><path d="M30.31 46.65a1 1 0 1 0 0 2 1 1 0 0 0 0-2Z" fill="#000000" data-fill-palette-color="accent"></path><circle cx="25.41" cy="47.65" r="1.0" fill="#000000" data-fill-palette-color="accent"></circle><path d="M64.57 46.65a1 1 0 1 0 1 1A1 1 0 0 0 64.57 46.65Z" fill="#000000" data-fill-palette-color="accent"></path><path d="M50.89 47.65a1 1 0 1 0-1 1A1 1 0 0 0 50.89 47.65Z" fill="#000000" data-fill-palette-color="accent"></path><path d="M60.68 47.65a1 1 0 1 0-1 1A1 1 0 0 0 60.68 47.65Z" fill="#000000" data-fill-palette-color="accent"></path><circle cx="54.78" cy="47.65" r="1.0" fill="#000000" data-fill-palette-color="accent"></circle><circle cx="35.2" cy="47.65" r="1.0" fill="#000000" data-fill-palette-color="accent"></circle><path d="M41.1 47.65a1 1 0 0 0-1-1h0a1 1 0 0 0 0 2h0A1 1 0 0 0 41.1 47.65Z" fill="#000000" data-fill-palette-color="accent"></path><circle cx="44.99" cy="47.65" r="1.0" fill="#000000" data-fill-palette-color="accent"></circle><path d="M69.5 31.29l0.15 0.13 0.18 0.09 0.18 0.05a0.7 0.7 0 0 0 0.2 0 0.63 0.63 0 0 0 0.19 0l0.19-0.05 0.17-0.09 0.16-0.13a1 1 0 0 0 0.21-0.32 1 1 0 0 0 0.08-0.39 1 1 0 0 0-0.29-0.7l-0.16-0.13-0.17-0.09-0.19-0.06a1.27 1.27 0 0 0-0.39 0l-0.18 0.06-0.18 0.09-0.15 0.13a1 1 0 0 0-0.21 0.32 0.84 0.84 0 0 0-0.08 0.38 0.88 0.88 0 0 0 0.08 0.39A1 1 0 0 0 69.5 31.29Z" fill="#000000" data-fill-palette-color="accent"></path><path d="M69.67 43h0a1 1 0 1 0-1-1A1 1 0 0 0 69.71 43Z" fill="#000000" data-fill-palette-color="accent"></path><path d="M69.92 37.27h0a1 1 0 0 0 0-2 1 1 0 1 0-0.08 2Z" fill="#000000" data-fill-palette-color="accent"></path><path d="M62.57 40.55a1 1 0 0 0 0.78 0.38 1 1 0 1 0-0.62-1.79A1 1 0 0 0 62.57 40.55Z" fill="#000000" data-fill-palette-color="accent"></path><path d="M59.67 35.28a1 1 0 0 0-0.16 1.41 1 1 0 0 0 0.78 0.37 1 1 0 1 0-0.62-1.78Z" fill="#000000" data-fill-palette-color="accent"></path><path d="M65.79 43a1 1 0 0 0-0.16 1.41 1 1 0 0 0 0.78 0.38 1 1 0 0 0 0.62-0.22A1 1 0 0 0 65.79 43Z" fill="#000000" data-fill-palette-color="accent"></path><path d="M48.06 21.62A1 1 0 0 0 48.84 20a1 1 0 0 0-1.4-0.16 1 1 0 0 0-0.17 1.4A1 1 0 0 0 48.06 21.62Z" fill="#000000" data-fill-palette-color="accent"></path><path d="M50.5 23.7a1 1 0 0 0-0.17 1.4 1 1 0 0 0 0.79 0.38 1 1 0 0 0 0.62-0.21 1 1 0 0 0 0.16-1.41A1 1 0 0 0 50.5 23.7Z" fill="#000000" data-fill-palette-color="accent"></path><path d="M56.61 31.42a1 1 0 0 0 0.62 1.78 1.06 1.06 0 0 0 0.63-0.21 1 1 0 1 0-1.25-1.57Z" fill="#000000" data-fill-palette-color="accent"></path><path d="M54.18 29.34a1 1 0 0 0 0.62-0.21A1 1 0 0 0 55 27.72a1 1 0 1 0-0.78 1.62Z" fill="#000000" data-fill-palette-color="accent"></path><path d="M69.81 63.57a1.21 1.21 0 0 0-0.33 0.22 1 1 0 0 0-0.29 0.71 1 1 0 0 0 0.29 0.7 1 1 0 0 0 0.71 0.3 1 1 0 0 0 0.71-0.3 1 1 0 0 0 0.29-0.7 1 1 0 0 0-0.29-0.71A1 1 0 0 0 69.81 63.57Z" fill="#000000" data-fill-palette-color="accent"></path><path d="M69.95 59.88h0a1 1 0 1 0-1-1A1 1 0 0 0 70 59.88Z" fill="#000000" data-fill-palette-color="accent"></path><path d="M69.71 54.26h0a1 1 0 1 0-1-1A1 1 0 0 0 69.75 54.26Z" fill="#000000" data-fill-palette-color="accent"></path><path d="M69.47 48.65a1 1 0 0 0 0.71-0.3 1 1 0 0 0 0.21-1.08 0.93 0.93 0 0 0-0.21-0.33 1 1 0 0 0-1.09-0.22 1 1 0 0 0-0.33 0.22 0.94 0.94 0 0 0-0.21 0.33 1 1 0 0 0-0.08 0.38 1 1 0 0 0 0.29 0.7A1 1 0 0 0 69.47 48.65Z" fill="#000000" data-fill-palette-color="accent"></path><path d="M50.33 70.23a1 1 0 0 0 0.17 1.4 1 1 0 0 0 0.62 0.22 1 1 0 0 0 0.78-0.38 1 1 0 1 0-1.57-1.24Z" fill="#000000" data-fill-palette-color="accent"></path><path d="M65.63 50.89a1 1 0 0 0 0.78 1.62A1 1 0 0 0 67 50.73 1 1 0 0 0 65.63 50.89Z" fill="#000000" data-fill-palette-color="accent"></path><path d="M62.57 54.76a1 1 0 0 0 0.16 1.4 1 1 0 0 0 0.62 0.22 1 1 0 0 0 0.79-0.38A1 1 0 0 0 64 54.59 1 1 0 0 0 62.57 54.76Z" fill="#000000" data-fill-palette-color="accent"></path><path d="M47.27 74.09a1 1 0 0 0 0.79 1.62 1 1 0 0 0 0.62-1.78A1 1 0 0 0 47.27 74.09Z" fill="#000000" data-fill-palette-color="accent"></path><path d="M56.45 62.49a1 1 0 0 0 0.16 1.41 1 1 0 0 0 0.62 0.21 1 1 0 0 0 0.79-0.38 1 1 0 0 0-1.57-1.24Z" fill="#000000" data-fill-palette-color="accent"></path><path d="M53.39 66.36a1 1 0 0 0 0.16 1.41 1 1 0 0 0 0.62 0.21 1 1 0 1 0-0.78-1.62Z" fill="#000000" data-fill-palette-color="accent"></path><path d="M59.51 58.63a1 1 0 1 0 1.4-0.17A1 1 0 0 0 59.51 58.63Z" fill="#000000" data-fill-palette-color="accent"></path><path d="M19.08 31.29a1.2 1.2 0 0 0 0.33 0.22 1.07 1.07 0 0 0 0.76 0 1 1 0 0 0 0.33-0.22 1.22 1.22 0 0 0 0.22-0.32 1 1 0 0 0 0.07-0.39 1 1 0 0 0-0.07-0.38 1.21 1.21 0 0 0-0.22-0.32 0.84 0.84 0 0 0-0.33-0.22 1 1 0 0 0-1.09 0.22 1 1 0 0 0-0.29 0.7 1 1 0 0 0 0.08 0.39A1 1 0 0 0 19.08 31.29Z" fill="#000000" data-fill-palette-color="accent"></path><path d="M20.23 41a1 1 0 0 0 0 2h0a1 1 0 1 0-0.08-2Z" fill="#000000" data-fill-palette-color="accent"></path><path d="M20 35.27a1 1 0 0 0 0 2h0a1 1 0 1 0-0.08-2Z" fill="#000000" data-fill-palette-color="accent"></path><path d="M35 27.72a1 1 0 1 0 1.41-0.16A1 1 0 0 0 35 27.72Z" fill="#000000" data-fill-palette-color="accent"></path><path d="M38.88 25.48a1 1 0 0 0 0.62-1.78 1 1 0 1 0-0.62 1.78Z" fill="#000000" data-fill-palette-color="accent"></path><path d="M23.57 44.79a1 1 0 1 0-0.62-0.22A1 1 0 0 0 23.57 44.79Z" fill="#000000" data-fill-palette-color="accent"></path><path d="M41.94 21.62a1 1 0 0 0 0.78-0.38 1 1 0 1 0-0.78 0.38Z" fill="#000000" data-fill-palette-color="accent"></path><path d="M25.85 39.3A1 1 0 0 0 26 40.71a1.06 1.06 0 0 0 0.63 0.21 1 1 0 0 0 0.78-0.37 1 1 0 0 0-1.57-1.25Z" fill="#000000" data-fill-palette-color="accent"></path><path d="M29.7 37.06a1 1 0 0 0 0.78-0.37 1 1 0 1 0-1.41 0.16A1.06 1.06 0 0 0 29.7 37.06Z" fill="#000000" data-fill-palette-color="accent"></path><path d="M32 31.58a1 1 0 1 0 1.41-0.16A1 1 0 0 0 32 31.58Z" fill="#000000" data-fill-palette-color="accent"></path><path d="M19.09 64a1 1 0 0 0-0.3 0.7 1 1 0 0 0 0.08 0.38 0.83 0.83 0 0 0 0.22 0.33 1 1 0 0 0 0.7 0.29 1 1 0 0 0 0.39-0.07 1 1 0 0 0 0.32-0.22 0.94 0.94 0 0 0 0.22-0.33 1 1 0 0 0 0.07-0.38 1 1 0 0 0-0.29-0.7A1 1 0 0 0 19.09 64Z" fill="#000000" data-fill-palette-color="accent"></path><path d="M20.32 52.33a1 1 0 1 0-0.09 2h0a1 1 0 0 0 0-2Z" fill="#000000" data-fill-palette-color="accent"></path><path d="M20.08 58A1 1 0 1 0 20 60h0a1 1 0 0 0 0-2Z" fill="#000000" data-fill-palette-color="accent"></path><path d="M21.22 46.94l-0.15-0.13-0.17-0.09-0.19 0a1 1 0 0 0-0.58 0 1 1 0 0 0-0.32 0.22 0.84 0.84 0 0 0-0.22 0.33 1.07 1.07 0 0 0 0 0.76 0.88 0.88 0 0 0 0.22 0.32 1 1 0 0 0 1.63-1.08A1 1 0 0 0 21.22 46.94Z" fill="#000000" data-fill-palette-color="accent"></path><path d="M35.2 66.2A1 1 0 0 0 35 67.6a1 1 0 0 0 0.79 0.38 1 1 0 0 0 0.62-0.22A1 1 0 1 0 35.2 66.2Z" fill="#000000" data-fill-palette-color="accent"></path><path d="M32.87 62.12a1 1 0 0 0-0.74 0.21 1 1 0 0 0 0.63 1.78 1 1 0 0 0 0.62-0.21 1 1 0 0 0 0.16-1.41A1 1 0 0 0 32.87 62.12Z" fill="#000000" data-fill-palette-color="accent"></path><path d="M22.95 50.73a1 1 0 0 0 0.63 1.78h0a1 1 0 1 0-0.63-1.78Z" fill="#000000" data-fill-palette-color="accent"></path><path d="M29.81 58.25a1 1 0 0 0-0.9 1.62 1 1 0 0 0 1.57-1.24A1 1 0 0 0 29.81 58.25Z" fill="#000000" data-fill-palette-color="accent"></path><path d="M41.32 73.93a1 1 0 0 0 0.62 1.78 1 1 0 0 0 0.78-1.62A1 1 0 0 0 41.32 73.93Z" fill="#000000" data-fill-palette-color="accent"></path><path d="M26 54.6a1 1 0 0 0 0.63 1.78h0a1 1 0 0 0 0.61-0.22A1 1 0 1 0 26 54.6Z" fill="#000000" data-fill-palette-color="accent"></path><path d="M38.26 70.06a1 1 0 0 0-0.17 1.41 1 1 0 0 0 0.79 0.38 1 1 0 0 0 0.62-0.22 1 1 0 0 0-1.24-1.57Z" fill="#000000" data-fill-palette-color="accent"></path><path d="M71.44 21.57L45 15.45 18.63 21.57l-11 26.05 10.91 26L45 79.84l26.45-6.22 10.91-26ZM69.63 71.48L45 77.27 20.37 71.48l-10-23.86L20.44 23.72 45 18l24.63 5.7 10 23.91Z" fill="#000000" data-fill-palette-color="accent"></path></svg></g></svg></g></svg></g></svg></g></svg></g></svg></g><defs></defs></svg><rect width="95.481" height="82.26979245283017" fill="none" stroke="none" visibility="hidden"></rect></g></svg></g></svg>